<svg xmlns="http://www.w3.org/2000/svg" version="1.1" xmlns:xlink="http://www.w3.org/1999/xlink" xmlns:svgjs="http://svgjs.dev/svgjs" width="2000" height="585" viewBox="0 0 2000 585"><g transform="matrix(1,0,0,1,-1.2121212121212466,-0.625841133675408)"><svg viewBox="0 0 396 116" data-background-color="#14293a" preserveAspectRatio="xMidYMid meet" height="585" width="2000" xmlns="http://www.w3.org/2000/svg" xmlns:xlink="http://www.w3.org/1999/xlink"><g id="tight-bounds" transform="matrix(1,0,0,1,0.2400000000000091,0.12409841283135847)"><svg viewBox="0 0 395.52 115.75180317433728" height="115.75180317433728" width="395.52"><g><svg viewBox="0 0 686.810207874372 200.99999999999997" height="115.75180317433728" width="395.52"><g><rect width="18.0362064" height="200.99999999999997" x="246.97316611525616" y="0" fill="#f8f9fa" opacity="1" stroke-width="0" stroke="transparent" fill-opacity="1" class="rect-yte-0" data-fill-palette-color="primary" rx="1%" id="yte-0" data-palette-color="#f8f9fa"></rect></g><g transform="matrix(1,0,0,1,312.22457251525617,0.4999999999999858)"><svg viewBox="0 0 374.58563535911594 200" height="200" width="374.58563535911594"><g id="textblocktransform"><svg viewBox="0 0 374.58563535911594 200" height="200" width="374.58563535911594" id="textblock"><g><svg viewBox="0 0 374.58563535911594 200" height="200" width="374.58563535911594"><g transform="matrix(1,0,0,1,0,0)"><svg width="374.58563535911594" viewBox="4.15 -35.6 67.8 36.2" height="200" data-palette-color="#f8f9fa"><path d="M19.3-35Q23.95-35 27.38-33.45 30.8-31.9 32.65-29.05 34.5-26.2 34.5-22.3L34.5-22.3Q34.5-18.45 32.65-15.58 30.8-12.7 27.38-11.18 23.95-9.65 19.3-9.65L19.3-9.65 12.25-9.65 12.25 0 4.15 0 4.15-35 19.3-35ZM18.85-16.25Q22.5-16.25 24.4-17.82 26.3-19.4 26.3-22.3L26.3-22.3Q26.3-25.25 24.4-26.83 22.5-28.4 18.85-28.4L18.85-28.4 12.25-28.4 12.25-16.25 18.85-16.25ZM57.5 0.6Q52.15 0.6 47.82-1.73 43.5-4.05 41.02-8.18 38.55-12.3 38.55-17.5L38.55-17.5Q38.55-22.7 41.02-26.83 43.5-30.95 47.82-33.27 52.15-35.6 57.55-35.6L57.55-35.6Q62.1-35.6 65.77-34 69.45-32.4 71.95-29.4L71.95-29.4 66.75-24.6Q63.2-28.7 57.95-28.7L57.95-28.7Q54.7-28.7 52.15-27.28 49.6-25.85 48.17-23.3 46.75-20.75 46.75-17.5L46.75-17.5Q46.75-14.25 48.17-11.7 49.6-9.15 52.15-7.73 54.7-6.3 57.95-6.3L57.95-6.3Q63.2-6.3 66.75-10.45L66.75-10.45 71.95-5.65Q69.45-2.6 65.75-1 62.05 0.6 57.5 0.6L57.5 0.6Z" opacity="1" transform="matrix(1,0,0,1,0,0)" fill="#f8f9fa" class="wordmark-text-0" data-fill-palette-color="primary" id="text-0"></path></svg></g></svg></g></svg></g></svg></g><g transform="matrix(1,0,0,1,0,0.4999999999999858)"><svg viewBox="0 0 199.75796611525615 200" height="200" width="199.75796611525615"><g><svg xmlns="http://www.w3.org/2000/svg" xmlns:xlink="http://www.w3.org/1999/xlink" version="1.1" x="0" y="0" viewBox="0.068 0.006 99.86500000000001 99.986" enable-background="new 0 0 100 100" xml:space="preserve" height="200" width="199.75796611525615" class="icon-icon-0" data-fill-palette-color="accent" id="icon-0"><path fill="#20c997" d="M99.932 0.006H0.068V83.588H35.039L29.142 99.992H70.859L64.96 83.588H99.933zM86.194 63.996H13.807V13.744H86.195z" data-fill-palette-color="accent"></path></svg></g></svg></g></svg></g><defs></defs></svg><rect width="395.52" height="115.75180317433728" fill="none" stroke="none" visibility="hidden"></rect></g></svg></g></svg>